<svg width="80" height="36" viewBox="0 0 80 36" fill="none" xmlns="http://www.w3.org/2000/svg">
<path d="M9.34263 20.408C7.74263 20.408 6.33463 20.04 5.11863 19.304C3.90263 18.568 2.95063 17.544 2.26263 16.232C1.59063 14.92 1.25463 13.384 1.25463 11.624C1.25463 9.864 1.59063 8.336 2.26263 7.04C2.95063 5.728 3.90263 4.704 5.11863 3.968C6.33463 3.232 7.74263 2.864 9.34263 2.864C11.1506 2.864 12.7026 3.32 13.9986 4.232C15.3106 5.128 16.2546 6.368 16.8306 7.952L13.5906 9.128C13.2546 8.184 12.7186 7.456 11.9826 6.944C11.2626 6.416 10.3826 6.152 9.34263 6.152C8.39863 6.152 7.57463 6.376 6.87063 6.824C6.16663 7.256 5.62263 7.88 5.23863 8.696C4.87063 9.512 4.68663 10.488 4.68663 11.624C4.68663 12.76 4.87063 13.744 5.23863 14.576C5.62263 15.392 6.16663 16.024 6.87063 16.472C7.57463 16.904 8.39863 17.12 9.34263 17.12C10.3826 17.12 11.2626 16.856 11.9826 16.328C12.7186 15.8 13.2546 15.072 13.5906 14.144L16.8306 15.32C16.2546 16.888 15.3106 18.128 13.9986 19.04C12.7026 19.952 11.1506 20.408 9.34263 20.408ZM43.2788 20.408C41.1188 20.408 39.4868 19.872 38.3828 18.8C37.2948 17.728 36.7508 16.112 36.7508 13.952V3.272H40.1828V13.568C40.1828 14.384 40.2628 15.064 40.4228 15.608C40.5828 16.152 40.8868 16.56 41.3348 16.832C41.7988 17.104 42.4468 17.24 43.2788 17.24C44.1108 17.24 44.7428 17.104 45.1748 16.832C45.6228 16.56 45.9348 16.152 46.1108 15.608C46.2868 15.064 46.3748 14.392 46.3748 13.592V3.272H49.8068V13.832C49.8068 16.04 49.2548 17.688 48.1508 18.776C47.0468 19.864 45.4228 20.408 43.2788 20.408ZM52.6917 20V3.272H58.4037C59.7797 3.272 60.8837 3.472 61.7157 3.872C62.5637 4.272 63.1797 4.84 63.5637 5.576C63.9637 6.312 64.1637 7.176 64.1637 8.168C64.1637 9.752 63.7077 10.968 62.7957 11.816C61.8997 12.664 60.6277 13.136 58.9797 13.232C58.5637 13.232 58.1557 13.232 57.7557 13.232C57.3557 13.232 57.0277 13.232 56.7717 13.232H56.1237V20H52.6917ZM61.6917 20L57.5397 12.848L61.0677 12.44L65.6757 20H61.6917ZM56.1237 10.16H58.0437C58.5077 10.16 58.9397 10.112 59.3397 10.016C59.7557 9.92 60.0837 9.736 60.3237 9.464C60.5797 9.176 60.7077 8.76 60.7077 8.216C60.7077 7.656 60.5797 7.248 60.3237 6.992C60.0837 6.72 59.7557 6.544 59.3397 6.464C58.9397 6.384 58.5077 6.344 58.0437 6.344H56.1237V10.16ZM70.8732 20V6.344H65.8332V3.272H79.3692V6.344H74.3532V20H70.8732ZM8.0515 35L1.3315 18.272H5.1235L9.8995 30.776H8.7955L13.4755 18.272H17.2915L10.5955 35H8.0515ZM18.9417 35V18.272H22.3737V35H18.9417ZM31.051 35.336C29.227 35.336 27.731 34.864 26.563 33.92C25.411 32.976 24.707 31.72 24.451 30.152L27.811 29.312C27.987 30.304 28.371 31.048 28.963 31.544C29.555 32.04 30.291 32.288 31.171 32.288C31.619 32.288 32.027 32.216 32.395 32.072C32.763 31.912 33.051 31.688 33.259 31.4C33.467 31.112 33.571 30.768 33.571 30.368C33.571 30 33.459 29.68 33.235 29.408C33.027 29.12 32.691 28.856 32.227 28.616C31.763 28.376 31.171 28.12 30.451 27.848C29.363 27.416 28.459 26.96 27.739 26.48C27.019 25.984 26.483 25.416 26.131 24.776C25.795 24.136 25.627 23.392 25.627 22.544C25.627 21.632 25.851 20.824 26.299 20.12C26.747 19.416 27.371 18.864 28.171 18.464C28.987 18.064 29.931 17.864 31.003 17.864C32.155 17.864 33.171 18.128 34.051 18.656C34.931 19.184 35.643 19.976 36.187 21.032L33.451 22.688C33.131 22.112 32.755 21.672 32.323 21.368C31.891 21.064 31.411 20.912 30.883 20.912C30.547 20.912 30.243 20.976 29.971 21.104C29.699 21.232 29.475 21.416 29.299 21.656C29.139 21.896 29.059 22.168 29.059 22.472C29.059 22.792 29.155 23.088 29.347 23.36C29.539 23.616 29.867 23.872 30.331 24.128C30.811 24.384 31.443 24.664 32.227 24.968C33.283 25.352 34.155 25.784 34.843 26.264C35.547 26.728 36.075 27.272 36.427 27.896C36.795 28.52 36.979 29.272 36.979 30.152C36.979 31.16 36.731 32.056 36.235 32.84C35.739 33.624 35.043 34.24 34.147 34.688C33.267 35.12 32.235 35.336 31.051 35.336ZM39.2854 35V18.272H42.7174V35H39.2854ZM63.6604 35V18.272H67.1884L74.7244 30.488H73.8364V18.272H77.2924V35H73.7404L66.2284 22.76H67.0924V35H63.6604Z" fill="#FF9500"/>
<path d="M18 10.4375C18 8.56409 18.6106 6.83327 19.6436 5.4332M18 10.4375C18 12.306 18.6074 14.0326 19.6354 15.4307M18 10.4375H34.875M19.6436 5.4332C21.18 3.35075 23.651 2 26.4375 2M19.6436 5.4332C20.7925 6.15136 21.7308 7.00904 22.2593 8.28493C22.542 8.96741 22.6875 9.69884 22.6875 10.4375C22.6875 11.1762 22.542 11.9077 22.2593 12.5901C21.7202 13.8918 20.7831 14.6793 19.6354 15.4307M19.6354 15.4307C21.1713 17.5195 23.6461 18.875 26.4375 18.875M34.875 10.4375C34.875 8.57 34.2683 6.84425 33.2412 5.44653M34.875 10.4375C34.875 12.3163 34.2609 14.0518 33.2225 15.454M26.4375 2C29.2299 2 31.7055 3.35652 33.2412 5.44653M26.4375 2V18.875M33.2412 5.44653C32.0912 6.19513 31.1549 6.98301 30.6157 8.28488C30.333 8.96731 30.1875 9.69875 30.1875 10.4375C30.1875 11.1762 30.333 11.9076 30.6157 12.5901C31.1584 13.9003 32.1048 14.6536 33.2225 15.454M26.4375 18.875C29.2186 18.875 31.6853 17.5295 33.2225 15.454" stroke="#FF9500" stroke-width="2.2" stroke-linecap="round" stroke-linejoin="round"/>
<path d="M45 26.4375C45 24.5641 45.6106 22.8333 46.6436 21.4332M45 26.4375C45 28.306 45.6074 30.0326 46.6354 31.4307M45 26.4375H61.875M46.6436 21.4332C48.18 19.3507 50.651 18 53.4375 18M46.6436 21.4332C47.7925 22.1514 48.7308 23.009 49.2593 24.2849C49.542 24.9674 49.6875 25.6988 49.6875 26.4375C49.6875 27.1762 49.542 27.9077 49.2593 28.5901C48.7202 29.8918 47.7831 30.6793 46.6354 31.4307M46.6354 31.4307C48.1713 33.5195 50.6461 34.875 53.4375 34.875M61.875 26.4375C61.875 24.57 61.2683 22.8443 60.2412 21.4465M61.875 26.4375C61.875 28.3163 61.2609 30.0518 60.2225 31.454M53.4375 18C56.2299 18 58.7055 19.3565 60.2412 21.4465M53.4375 18V34.875M60.2412 21.4465C59.0912 22.1951 58.1549 22.983 57.6157 24.2849C57.333 24.9673 57.1875 25.6988 57.1875 26.4375C57.1875 27.1762 57.333 27.9076 57.6157 28.5901C58.1584 29.9003 59.1048 30.6536 60.2225 31.454M53.4375 34.875C56.2186 34.875 58.6853 33.5295 60.2225 31.454" stroke="#FF9500" stroke-width="2.2" stroke-linecap="round" stroke-linejoin="round"/>
</svg>
